<svg width="600" height="600" viewBox="0 0 600 600" fill="none" xmlns="http://www.w3.org/2000/svg">
<rect width="600" height="600" fill="white"/>
<rect x="500" width="100" height="100" fill="#0090FF"/>
<path d="M100 447.549V150.696C100 90.7808 168.121 100 168.121 100H300H450V50V0H100.671C100.671 0 4.323e-06 0 4.31104e-06 90.7808V508.372C-3.36956e-06 600 100.671 600 100.671 600H260V500H168.121C168.121 500 100 508.372 100 447.549Z" fill="#0090FF"/>
<path d="M500 447.549C500 508.372 431.879 500 431.879 500H360V600H499.329C499.329 600 600 600 600 508.372V150.696H550L500 150V447.549Z" fill="#0090FF"/>
</svg>
